<svg width="148" height="28" viewBox="0 0 148 28" fill="none" xmlns="http://www.w3.org/2000/svg">
<path fill-rule="evenodd" clip-rule="evenodd" d="M12.5243 0.518775C10.8164 0.685242 9.43645 1.02947 8.09226 1.62437C7.10359 2.06188 5.91875 2.74922 5.63794 3.04812C5.35856 3.34549 5.54213 3.83176 5.95821 3.89671C6.11687 3.92145 6.21406 3.87729 6.72043 3.55032C7.40043 3.11117 8.45527 2.58196 9.20028 2.30607C9.73255 2.10894 11.0449 1.75454 11.2425 1.75454C11.3473 1.75454 11.3475 1.75728 11.2527 1.89963C10.3981 3.18219 9.79787 4.76883 9.30919 7.03694L9.2226 7.43879L8.86956 7.5259C8.09754 7.71637 7.51245 8.26848 7.25539 9.04901C7.227 9.13527 7.05505 9.14134 4.63793 9.14134C3.21507 9.14134 2.05091 9.1262 2.05091 9.10762C2.05091 9.01323 2.66196 7.84068 2.92693 7.42655C3.30519 6.8355 3.33104 6.63035 3.05789 6.38633C2.90657 6.25109 2.84958 6.23157 2.67452 6.25505C2.40321 6.29146 2.36248 6.33082 2.0164 6.89026C-0.768105 11.3917 -0.660943 17.1322 2.28966 21.5305L2.51412 21.8651L2.35894 22.1659C2.14478 22.5811 2.06537 23.0778 2.14177 23.5238C2.39672 25.0121 3.9986 25.8238 5.32791 25.1382L5.62649 24.9842L6.09434 25.2874C8.23915 26.6774 10.4967 27.3912 13.0474 27.4861C17.7553 27.6612 22.1958 25.3487 24.8259 21.3522C26.3189 19.0836 27.0932 16.2903 26.991 13.5425C26.8962 10.9917 26.1823 8.73422 24.7923 6.58941L24.4891 6.12156L24.6431 5.82298C24.8562 5.40984 24.9354 4.91255 24.8591 4.46723C24.604 2.97768 23.0023 2.1673 21.6708 2.85401L21.37 3.00918L21.0354 2.78473C19.3563 1.6583 17.4693 0.933914 15.3999 0.621241C14.8744 0.541833 12.9802 0.474349 12.5243 0.518775ZM13.9623 1.67354C15.12 2.21252 16.2774 4.82956 16.8217 8.13885C16.8813 8.50159 16.9431 8.87578 16.959 8.97034L16.9878 9.14229L14.2627 9.12862L11.5376 9.11496L11.4412 8.86101C11.2617 8.38789 10.9285 8.03137 10.2873 7.62641C10.2562 7.60684 10.4224 6.84046 10.6339 6.02833C11.3295 3.35568 12.4874 1.54454 13.5005 1.54454C13.602 1.54454 13.8099 1.60258 13.9623 1.67354ZM16.5691 1.93261C16.9562 2.03054 17.5104 2.19859 17.8006 2.30607C19.004 2.7517 20.7245 3.71742 20.651 3.90599C20.5231 4.23407 20.4549 4.66219 20.4809 4.97312C20.6094 6.50905 22.1192 7.41837 23.5894 6.84526C23.6602 6.81761 23.7456 6.91095 23.9842 7.27659C24.2724 7.71817 24.95 8.9935 24.95 9.09438C24.95 9.12134 23.4813 9.14134 21.5042 9.14134H18.0583L17.914 8.25756C17.4938 5.68363 16.7967 3.53555 15.9577 2.2294C15.8365 2.04077 15.7194 1.85679 15.6975 1.82049C15.6347 1.71681 15.8003 1.73813 16.5691 1.93261ZM23.2152 3.80142C24.0757 4.25096 24.0255 5.46767 23.1297 5.87685C22.3619 6.22756 21.4504 5.56206 21.5322 4.71052C21.5878 4.1315 22.1071 3.654 22.6812 3.654C22.8543 3.654 23.0212 3.70006 23.2152 3.80142ZM3.86595 4.57207C3.66857 4.76946 3.63923 4.93951 3.76175 5.17647C3.94336 5.52761 4.48502 5.52761 4.66663 5.17647C4.80666 4.90564 4.72135 4.59766 4.47035 4.46787C4.2334 4.34535 4.06334 4.37469 3.86595 4.57207ZM9.89628 8.64183C10.4481 8.91683 10.6942 9.57621 10.447 10.1175C10.0358 11.0176 8.82287 11.0633 8.36695 10.1958C8.23884 9.95199 8.21815 9.85923 8.23578 9.60708C8.29461 8.76546 9.14836 8.26917 9.89628 8.64183ZM7.25539 10.2889C7.44618 10.8683 7.89044 11.3968 8.39275 11.6422L8.69323 11.789L8.66305 13.2484C8.63604 14.5536 8.67366 15.8002 8.78631 17.3328L8.82023 17.7945H5.22861H1.63699L1.58148 17.623C1.46609 17.2665 1.26168 16.3439 1.17188 15.7742C1.10218 15.3317 1.07907 14.877 1.08013 13.9691C1.08187 12.5275 1.18444 11.7756 1.55705 10.4736L1.6363 10.1966H4.43062C7.04518 10.1966 7.22695 10.2026 7.25539 10.2889ZM17.113 10.2626C17.2222 10.5993 17.3322 13.9934 17.2752 15.269L17.2359 16.1467L17.0617 16.175C16.7422 16.2269 16.303 16.4858 16.0053 16.798C15.7423 17.0736 15.4545 17.5587 15.4532 17.7285C15.4524 17.8251 9.91918 17.8251 9.88789 17.7285C9.77877 17.3922 9.66871 13.998 9.72564 12.7247L9.76474 11.8495L10.0223 11.7835C10.3475 11.7002 10.8433 11.3821 11.065 11.1145C11.2184 10.9295 11.4339 10.5335 11.5145 10.2889C11.543 10.2026 11.7237 10.1966 14.3183 10.1966C16.4904 10.1966 17.0963 10.2109 17.113 10.2626ZM25.4194 10.3681C25.5355 10.7267 25.7394 11.6483 25.8283 12.2168C25.9593 13.053 25.9596 14.9022 25.8291 15.7367C25.732 16.3575 25.5881 17.0247 25.445 17.5174L25.3646 17.7945H22.5573H19.75L19.5988 17.4476C19.4073 17.0078 19.03 16.5934 18.6241 16.3771L18.3075 16.2084L18.3378 14.7458C18.3649 13.4373 18.3274 12.1921 18.2146 10.6583L18.1807 10.1966H21.7723H25.3639L25.4194 10.3681ZM18.0942 17.3064C18.2817 17.4014 18.4351 17.5304 18.539 17.6803C18.6823 17.887 18.6976 17.9489 18.6976 18.3221C18.6976 18.6953 18.6823 18.7572 18.539 18.9639C18.3535 19.2314 17.9075 19.483 17.6197 19.4825C16.9527 19.4815 16.4345 18.9742 16.4345 18.3221C16.4345 17.4484 17.3135 16.9105 18.0942 17.3064ZM9.08689 19.7335C9.51544 22.3585 10.2154 24.4896 11.093 25.8408C11.2916 26.1465 11.3173 26.2128 11.2423 26.2253C11.0998 26.2492 9.78273 25.9007 9.20028 25.685C7.99687 25.2394 6.27643 24.2736 6.34993 24.0851C6.47782 23.757 6.54605 23.3289 6.52003 23.0179C6.3915 21.482 4.88169 20.5727 3.41156 21.1458C3.34075 21.1734 3.25533 21.0801 3.01668 20.7145C2.72849 20.2729 2.05091 18.9976 2.05091 18.8967C2.05091 18.8697 3.51957 18.8497 5.49675 18.8497H8.94259L9.08689 19.7335ZM15.4532 18.9157C15.4535 18.952 15.512 19.1068 15.5832 19.2598C15.7432 19.6034 16.1687 20.0614 16.483 20.2281C16.6128 20.2969 16.719 20.3805 16.719 20.4137C16.719 20.5354 16.3984 21.8816 16.2392 22.4285C15.6458 24.4663 14.7874 25.9333 13.9641 26.3167C13.6125 26.4803 13.3888 26.4805 13.0386 26.3175C11.8796 25.7779 10.7659 23.2611 10.1776 19.8522C10.0899 19.3444 10.0182 18.9111 10.0182 18.8893C10.0181 18.8675 11.2409 18.8497 12.7354 18.8497C14.8738 18.8497 15.4528 18.8637 15.4532 18.9157ZM24.95 18.8842C24.95 18.9547 24.3256 20.1578 24.1046 20.5129C23.1224 22.0916 21.5966 23.6175 20.0178 24.5997C19.4646 24.9439 18.5003 25.4155 17.851 25.6596C17.2754 25.8759 15.969 26.2365 15.7609 26.2365C15.6534 26.2365 15.6532 26.2341 15.7483 26.0914C16.5949 24.8207 17.2211 23.1665 17.6924 20.9552L17.7778 20.5544L18.1058 20.4633C18.8119 20.2669 19.3205 19.8354 19.5988 19.1966L19.75 18.8497H22.35C23.78 18.8497 24.95 18.8652 24.95 18.8842ZM4.85368 22.1629C5.73682 22.6243 5.64876 23.9043 4.70921 24.2631C3.95634 24.5506 3.11408 23.9219 3.17054 23.1144C3.21328 22.5032 3.72328 22.0155 4.31972 22.0155C4.49283 22.0155 4.65967 22.0615 4.85368 22.1629Z" fill="#8E2424"/>
<path d="M47.8097 14.4545C47.8097 15.8523 47.554 17.054 47.0426 18.0597C46.5313 19.0611 45.8303 19.8324 44.9396 20.3736C44.0533 20.9105 43.0455 21.179 41.9162 21.179C40.7827 21.179 39.7706 20.9105 38.88 20.3736C37.9936 19.8324 37.2947 19.0589 36.7834 18.0533C36.272 17.0476 36.0163 15.848 36.0163 14.4545C36.0163 13.0568 36.272 11.8572 36.7834 10.8558C37.2947 9.85014 37.9936 9.07883 38.88 8.5419C39.7706 8.00071 40.7827 7.73011 41.9162 7.73011C43.0455 7.73011 44.0533 8.00071 44.9396 8.5419C45.8303 9.07883 46.5313 9.85014 47.0426 10.8558C47.554 11.8572 47.8097 13.0568 47.8097 14.4545ZM45.8537 14.4545C45.8537 13.3892 45.6811 12.4922 45.3359 11.7635C44.995 11.0305 44.5263 10.4766 43.9297 10.1016C43.3374 9.7223 42.6662 9.53267 41.9162 9.53267C41.1619 9.53267 40.4886 9.7223 39.8963 10.1016C39.304 10.4766 38.8352 11.0305 38.4901 11.7635C38.1491 12.4922 37.9787 13.3892 37.9787 14.4545C37.9787 15.5199 38.1491 16.419 38.4901 17.152C38.8352 17.8807 39.304 18.4347 39.8963 18.8139C40.4886 19.1889 41.1619 19.3764 41.9162 19.3764C42.6662 19.3764 43.3374 19.1889 43.9297 18.8139C44.5263 18.4347 44.995 17.8807 45.3359 17.152C45.6811 16.419 45.8537 15.5199 45.8537 14.4545ZM50.1188 24.6818V11.1818H51.9853V12.7734H52.1451C52.2559 12.5689 52.4157 12.3324 52.6245 12.0639C52.8333 11.7955 53.123 11.5611 53.4938 11.3608C53.8645 11.1562 54.3546 11.054 54.964 11.054C55.7566 11.054 56.464 11.2543 57.0861 11.6548C57.7083 12.0554 58.1962 12.6328 58.5499 13.3871C58.9078 14.1413 59.0868 15.049 59.0868 16.1101C59.0868 17.1712 58.91 18.081 58.5563 18.8395C58.2026 19.5937 57.7168 20.1754 57.0989 20.5845C56.481 20.9893 55.7757 21.1918 54.9831 21.1918C54.3865 21.1918 53.8986 21.0916 53.5194 20.8913C53.1444 20.6911 52.8503 20.4567 52.6373 20.1882C52.4242 19.9197 52.2601 19.6811 52.1451 19.4723H52.03V24.6818H50.1188ZM51.9917 16.0909C51.9917 16.7812 52.0918 17.3864 52.2921 17.9062C52.4924 18.4261 52.7821 18.8331 53.1614 19.1271C53.5407 19.4169 54.0051 19.5618 54.5549 19.5618C55.1259 19.5618 55.6032 19.4105 55.9867 19.108C56.3702 18.8011 56.66 18.3857 56.856 17.8615C57.0563 17.3374 57.1564 16.7472 57.1564 16.0909C57.1564 15.4432 57.0584 14.8615 56.8624 14.3459C56.6706 13.8303 56.3809 13.4233 55.9931 13.125C55.6096 12.8267 55.1301 12.6776 54.5549 12.6776C54.0009 12.6776 53.5321 12.8203 53.1486 13.1058C52.7694 13.3913 52.4817 13.7898 52.2857 14.3011C52.0897 14.8125 51.9917 15.4091 51.9917 16.0909ZM65.8113 11.1818V12.7159H60.4483V11.1818H65.8113ZM61.8865 8.82955H63.7978V18.1172C63.7978 18.4879 63.8532 18.767 63.964 18.9545C64.0748 19.1378 64.2175 19.2635 64.3922 19.3317C64.5712 19.3956 64.7651 19.4276 64.9739 19.4276C65.1273 19.4276 65.2615 19.4169 65.3766 19.3956C65.4917 19.3743 65.5811 19.3572 65.6451 19.3445L65.9902 20.9233C65.8794 20.9659 65.7218 21.0085 65.5172 21.0511C65.3127 21.098 65.057 21.1236 64.7502 21.1278C64.2473 21.1364 63.7786 21.0469 63.3439 20.8594C62.9093 20.6719 62.5577 20.3821 62.2892 19.9901C62.0208 19.598 61.8865 19.1058 61.8865 18.5135V8.82955ZM67.9254 21V11.1818H69.8366V21H67.9254ZM68.8906 9.6669C68.5582 9.6669 68.2727 9.55611 68.0341 9.33452C67.7997 9.10866 67.6825 8.8402 67.6825 8.52912C67.6825 8.21378 67.7997 7.94531 68.0341 7.72372C68.2727 7.49787 68.5582 7.38494 68.8906 7.38494C69.223 7.38494 69.5064 7.49787 69.7408 7.72372C69.9794 7.94531 70.0987 8.21378 70.0987 8.52912C70.0987 8.8402 69.9794 9.10866 69.7408 9.33452C69.5064 9.55611 69.223 9.6669 68.8906 9.6669ZM72.4078 21V11.1818H74.2424V12.7798H74.3638C74.5684 12.2386 74.9029 11.8168 75.3674 11.5142C75.8319 11.2074 76.388 11.054 77.0357 11.054C77.6919 11.054 78.2417 11.2074 78.6848 11.5142C79.1323 11.821 79.4625 12.2429 79.6756 12.7798H79.7779C80.0123 12.2557 80.3851 11.8381 80.8965 11.527C81.4078 11.2116 82.0172 11.054 82.7246 11.054C83.6152 11.054 84.3418 11.3331 84.9043 11.8913C85.4711 12.4496 85.7544 13.2912 85.7544 14.4162V21H83.8432V14.5952C83.8432 13.9304 83.6621 13.4489 83.2999 13.1506C82.9377 12.8523 82.5051 12.7031 82.0023 12.7031C81.3801 12.7031 80.8965 12.8949 80.5513 13.2784C80.2061 13.6577 80.0336 14.1456 80.0336 14.7422V21H78.1287V14.4737C78.1287 13.9411 77.9625 13.5128 77.6301 13.1889C77.2978 12.8651 76.8652 12.7031 76.3326 12.7031C75.9703 12.7031 75.6358 12.799 75.329 12.9908C75.0265 13.1783 74.7814 13.4403 74.5939 13.777C74.4107 14.1136 74.3191 14.5036 74.3191 14.9467V21H72.4078ZM94.5355 16.9283V11.1818H96.4531V21H94.5739V19.2997H94.4716C94.2457 19.8239 93.8835 20.2607 93.3849 20.6101C92.8906 20.9553 92.2749 21.1278 91.5376 21.1278C90.907 21.1278 90.3487 20.9893 89.8629 20.7124C89.3814 20.4311 89.0021 20.0156 88.7251 19.4659C88.4524 18.9162 88.3161 18.2365 88.3161 17.4268V11.1818H90.2273V17.1967C90.2273 17.8658 90.4126 18.3984 90.7834 18.7947C91.1541 19.1911 91.6357 19.3892 92.228 19.3892C92.5859 19.3892 92.9418 19.2997 93.2955 19.1207C93.6534 18.9418 93.9496 18.6712 94.1839 18.3089C94.4226 17.9467 94.5398 17.4865 94.5355 16.9283ZM106.378 13.5788L104.646 13.8857C104.574 13.6641 104.459 13.4531 104.301 13.2528C104.148 13.0526 103.939 12.8885 103.675 12.7607C103.41 12.6328 103.08 12.5689 102.684 12.5689C102.143 12.5689 101.691 12.6903 101.329 12.9332C100.966 13.1719 100.785 13.4808 100.785 13.8601C100.785 14.1882 100.907 14.4524 101.15 14.6527C101.393 14.853 101.785 15.017 102.326 15.1449L103.885 15.5028C104.789 15.7116 105.462 16.0334 105.905 16.468C106.349 16.9027 106.57 17.4673 106.57 18.1619C106.57 18.75 106.4 19.2741 106.059 19.7344C105.722 20.1903 105.251 20.5483 104.646 20.8082C104.045 21.0682 103.349 21.1982 102.556 21.1982C101.456 21.1982 100.559 20.9638 99.8649 20.495C99.1703 20.022 98.7441 19.3509 98.5865 18.4815L100.434 18.2003C100.549 18.6818 100.785 19.0462 101.143 19.2933C101.501 19.5362 101.968 19.6577 102.543 19.6577C103.17 19.6577 103.67 19.5277 104.045 19.2678C104.42 19.0036 104.608 18.6818 104.608 18.3026C104.608 17.9957 104.493 17.7379 104.263 17.5291C104.037 17.3203 103.689 17.1626 103.221 17.0561L101.559 16.6918C100.643 16.483 99.965 16.1506 99.5261 15.6946C99.0914 15.2386 98.8741 14.6612 98.8741 13.9624C98.8741 13.3828 99.036 12.8757 99.3599 12.4411C99.6838 12.0064 100.131 11.6676 100.702 11.4247C101.273 11.1776 101.927 11.054 102.665 11.054C103.726 11.054 104.561 11.2841 105.17 11.7443C105.78 12.2003 106.182 12.8118 106.378 13.5788ZM106.843 9.60938V7.90909H116.975V9.60938H112.89V21H110.922V9.60938H106.843ZM121.868 21.1982C120.901 21.1982 120.067 20.9915 119.369 20.5781C118.674 20.1605 118.137 19.5746 117.758 18.8203C117.383 18.0618 117.195 17.1733 117.195 16.1548C117.195 15.1491 117.383 14.2628 117.758 13.4957C118.137 12.7287 118.665 12.13 119.343 11.6996C120.025 11.2692 120.822 11.054 121.734 11.054C122.288 11.054 122.825 11.1456 123.344 11.3288C123.864 11.5121 124.331 11.7997 124.744 12.1918C125.158 12.5838 125.484 13.093 125.722 13.7195C125.961 14.3416 126.08 15.098 126.08 15.9886V16.6662H118.276V15.2344H124.207C124.207 14.7315 124.105 14.2862 123.901 13.8984C123.696 13.5064 123.408 13.1974 123.038 12.9716C122.671 12.7457 122.241 12.6328 121.746 12.6328C121.21 12.6328 120.741 12.7649 120.34 13.0291C119.944 13.2891 119.637 13.63 119.42 14.0518C119.207 14.4695 119.1 14.9233 119.1 15.4134V16.532C119.1 17.1882 119.215 17.7464 119.445 18.2067C119.68 18.6669 120.006 19.0185 120.423 19.2614C120.841 19.5 121.329 19.6193 121.887 19.6193C122.249 19.6193 122.58 19.5682 122.878 19.4659C123.176 19.3594 123.434 19.2017 123.651 18.9929C123.869 18.7841 124.035 18.5263 124.15 18.2195L125.959 18.5455C125.814 19.0781 125.554 19.5447 125.179 19.9453C124.808 20.3416 124.342 20.6506 123.779 20.8722C123.221 21.0895 122.584 21.1982 121.868 21.1982ZM132.336 21.1982C131.386 21.1982 130.568 20.983 129.882 20.5526C129.2 20.1179 128.676 19.5192 128.309 18.7564C127.943 17.9936 127.76 17.12 127.76 16.1357C127.76 15.1385 127.947 14.2585 128.322 13.4957C128.697 12.7287 129.226 12.13 129.907 11.6996C130.589 11.2692 131.393 11.054 132.317 11.054C133.063 11.054 133.728 11.1925 134.312 11.4695C134.895 11.7422 135.366 12.1257 135.724 12.62C136.086 13.1143 136.302 13.6918 136.37 14.3523H134.51C134.407 13.892 134.173 13.4957 133.807 13.1634C133.444 12.831 132.959 12.6648 132.349 12.6648C131.817 12.6648 131.35 12.8054 130.949 13.0866C130.553 13.3636 130.244 13.7599 130.023 14.2756C129.801 14.7869 129.69 15.392 129.69 16.0909C129.69 16.8068 129.799 17.4247 130.016 17.9446C130.233 18.4645 130.54 18.8672 130.937 19.1527C131.337 19.4382 131.808 19.581 132.349 19.581C132.711 19.581 133.04 19.5149 133.334 19.3828C133.632 19.2464 133.881 19.0526 134.081 18.8011C134.286 18.5497 134.429 18.2472 134.51 17.8935H136.37C136.302 18.5284 136.095 19.0952 135.75 19.5938C135.405 20.0923 134.942 20.4844 134.363 20.7699C133.787 21.0554 133.112 21.1982 132.336 21.1982ZM140.325 15.1705V21H138.414V7.90909H140.299V12.7798H140.421C140.651 12.2514 141.002 11.8317 141.475 11.5206C141.949 11.2095 142.566 11.054 143.329 11.054C144.002 11.054 144.591 11.1925 145.093 11.4695C145.6 11.7464 145.993 12.1598 146.27 12.7095C146.551 13.255 146.691 13.9368 146.691 14.755V21H144.78V14.9851C144.78 14.2649 144.595 13.7067 144.224 13.3104C143.853 12.9098 143.338 12.7095 142.677 12.7095C142.225 12.7095 141.821 12.8054 141.463 12.9972C141.109 13.1889 140.83 13.4702 140.625 13.8409C140.425 14.2074 140.325 14.6506 140.325 15.1705Z" fill="#3A404E"/>
</svg>
